<?xml version="1.0" standalone="no"?>
<!DOCTYPE svg PUBLIC "-//W3C//DTD SVG 20010904//EN"
 "http://www.w3.org/TR/2001/REC-SVG-20010904/DTD/svg10.dtd">
<svg version="1.0" xmlns="http://www.w3.org/2000/svg"
 width="1000.000000pt" height="1000.000000pt" viewBox="0 0 1000.000000 1000.000000"
 preserveAspectRatio="xMidYMid meet">
<metadata>
Created by potrace 1.14, written by Peter Selinger 2001-2017
</metadata>
<g transform="translate(0.000000,1000.000000) scale(0.100000,-0.100000)"
fill="#000000" stroke="none">
<path d="M5914 5760 c-138 -30 -212 -150 -173 -280 21 -71 102 -135 181 -144
18 -2 36 -4 41 -5 4 0 5 -13 2 -28 -3 -16 -7 -68 -10 -117 -3 -48 -8 -92 -11
-98 -3 -5 -7 -19 -9 -31 -6 -46 -15 -85 -30 -127 -15 -42 -20 -89 -9 -77 3 3
23 -1 45 -8 22 -8 45 -12 52 -9 10 3 50 83 52 104 0 3 6 15 13 28 7 12 11 22
8 22 -3 0 2 16 10 35 17 40 55 195 60 240 6 69 10 74 50 80 16 3 45 8 64 12
19 3 38 6 42 5 4 -1 42 9 84 23 43 14 79 23 81 21 2 -2 5 -197 5 -432 1 -452
5 -495 49 -589 34 -72 108 -134 182 -152 43 -10 174 -11 218 -2 70 15 227 90
242 115 4 8 13 14 18 14 6 0 26 15 46 34 l36 34 -26 27 c-15 16 -31 25 -39 21
-7 -3 -36 -19 -65 -36 -43 -24 -61 -29 -106 -26 -88 5 -123 42 -132 140 -3 26
-7 52 -11 57 -3 5 -2 9 3 9 7 0 9 54 3 70 -1 3 -2 9 -1 14 1 4 2 38 1 75 0 74
1 111 3 159 1 17 -1 32 -5 32 -4 0 -3 11 2 25 6 15 6 27 0 30 -6 3 -6 15 0 30
6 15 6 27 0 30 -6 3 -6 15 0 30 6 15 6 27 0 30 -5 3 -7 11 -5 18 8 22 11 127
3 127 -4 0 -3 11 2 25 6 15 6 27 0 30 -6 3 -6 15 0 30 6 15 6 27 0 30 -6 3 -6
15 0 30 5 13 5 27 1 30 -5 3 -5 20 -1 39 4 19 6 36 4 38 -1 2 -5 25 -8 51 -6
50 -30 96 -50 98 -6 0 -19 2 -29 4 -19 4 -52 -8 -152 -54 -33 -16 -98 -41
-145 -56 -84 -27 -96 -30 -155 -40 -51 -9 -171 -14 -181 -7 -5 4 -10 22 -12
40 -3 48 -36 107 -76 137 -42 32 -120 54 -162 45z"/>
<path d="M2385 5746 c-84 -37 -138 -131 -128 -225 5 -48 27 -101 43 -101 6 0
10 -6 10 -12 0 -27 115 -78 176 -78 1 0 0 -35 -2 -77 -3 -43 -5 -93 -6 -110
-1 -18 -5 -33 -10 -33 -5 0 -7 -4 -3 -9 3 -5 0 -31 -6 -58 -6 -26 -13 -59 -15
-73 -3 -13 -9 -29 -13 -35 -5 -5 -12 -24 -16 -42 -6 -31 -6 -32 46 -47 29 -9
54 -16 56 -16 4 0 57 110 58 120 0 3 12 37 25 75 24 70 29 87 34 115 2 8 9 42
16 75 7 33 12 71 12 85 1 32 20 46 71 49 23 1 46 6 53 11 6 6 14 7 17 4 3 -4
39 4 79 15 40 12 80 24 88 27 14 3 15 -42 15 -394 0 -424 5 -515 32 -582 6
-14 9 -28 6 -32 -2 -5 1 -8 8 -8 7 0 10 -3 6 -6 -8 -9 55 -82 104 -120 38 -28
97 -39 210 -38 81 0 108 6 188 41 18 8 40 16 48 17 8 1 18 7 21 13 4 6 21 18
39 27 17 9 49 32 70 51 21 19 41 35 46 35 14 0 6 25 -17 53 -20 25 -25 27 -38
14 -8 -8 -37 -26 -65 -41 -96 -48 -196 -21 -225 63 -9 27 -12 171 -13 561 -1
289 -5 541 -9 560 -18 78 -69 95 -157 52 -61 -29 -103 -46 -111 -44 -5 1 -8
-2 -8 -7 0 -5 -15 -13 -32 -17 -43 -10 -39 -9 -73 -23 -82 -35 -330 -62 -333
-37 -3 36 -15 82 -23 91 -5 5 -9 15 -9 22 0 18 -65 74 -103 91 -38 16 -124 15
-162 -2z"/>
<path d="M1208 5695 c-2 -2 -23 -6 -48 -10 -101 -14 -219 -63 -300 -123 -122
-90 -236 -255 -266 -384 -1 -5 -3 -9 -4 -10 -1 -2 -4 -14 -6 -28 -2 -14 -6
-41 -9 -60 -9 -59 -7 -222 5 -275 6 -27 13 -61 15 -75 8 -39 98 -219 107 -214
4 3 8 -1 8 -8 0 -21 101 -119 167 -164 32 -21 60 -41 63 -44 3 -3 14 -7 25 -8
11 -2 25 -8 30 -12 12 -9 150 -51 162 -49 4 1 10 0 13 -1 3 -1 30 -3 61 -5 31
-1 60 -5 66 -8 6 -4 13 -4 16 -1 3 3 39 7 79 9 48 3 105 15 164 35 49 17 94
31 99 33 6 1 12 4 15 7 3 3 25 19 50 35 25 17 79 64 120 106 105 106 174 247
195 399 12 79 5 250 -11 302 -3 9 -7 27 -10 40 -9 39 -10 42 -33 93 -35 75
-82 143 -142 207 -53 55 -149 128 -169 128 -5 0 -10 5 -10 12 0 6 -3 9 -6 6
-3 -4 -29 4 -57 17 -29 12 -65 25 -82 29 -16 3 -41 9 -55 12 -27 5 -248 13
-252 9z m217 -149 c60 -41 107 -104 121 -161 4 -16 10 -34 14 -40 10 -13 40
-146 48 -210 16 -132 5 -356 -23 -475 -17 -72 -17 -71 -36 -120 -7 -19 -12
-38 -11 -42 1 -5 -2 -8 -7 -8 -5 0 -12 -9 -16 -19 -9 -31 -77 -96 -117 -114
-65 -30 -157 -23 -213 16 -71 49 -107 113 -149 262 -21 76 -40 238 -38 330 2
119 14 226 36 312 8 28 11 54 8 57 -3 3 0 6 6 6 7 0 12 7 12 16 0 58 100 184
165 209 59 22 152 13 200 -19z"/>
<path d="M4488 5695 c-2 -2 -21 -5 -43 -8 -39 -6 -56 -10 -92 -24 -10 -3 -27
-8 -37 -10 -11 -2 -25 -8 -31 -13 -7 -5 -15 -7 -18 -3 -4 3 -7 1 -7 -5 0 -7
-5 -12 -11 -12 -6 0 -29 -13 -52 -29 -145 -100 -255 -287 -284 -481 -9 -55 -9
-272 -1 -320 39 -223 159 -411 317 -494 60 -31 152 -63 191 -65 105 -8 136
-10 140 -12 3 -1 10 0 15 1 6 1 26 4 45 6 62 5 94 14 158 45 59 28 172 124
172 146 0 6 8 18 19 27 17 16 19 16 24 -6 4 -13 6 -24 7 -26 0 -16 40 -75 71
-103 54 -52 109 -77 176 -83 32 -2 63 -5 68 -6 6 -1 12 -1 15 0 3 1 19 3 35 5
53 5 99 16 112 27 7 6 13 8 13 4 0 -6 86 36 145 71 16 10 45 33 65 50 19 18
38 33 43 33 15 0 6 28 -16 54 -20 23 -26 25 -38 14 -64 -58 -158 -81 -222 -55
-38 16 -81 72 -72 95 2 6 1 12 -3 12 -4 0 -7 252 -6 560 0 308 -2 561 -5 561
-4 1 -97 2 -208 3 l-203 2 -1 -26 c0 -14 -1 -46 -1 -72 1 -27 -3 -48 -9 -48
-5 0 -9 4 -9 9 0 11 -90 101 -101 101 -4 0 -14 6 -21 13 -32 33 -132 59 -235
62 -56 1 -103 1 -105 0z m266 -178 c11 -6 24 -11 27 -12 13 0 66 -51 90 -85
77 -110 104 -239 103 -485 0 -129 -5 -176 -22 -242 -38 -148 -90 -232 -176
-283 -33 -20 -53 -24 -115 -23 -89 0 -111 3 -111 15 0 4 -8 8 -17 8 -19 1 -83
54 -83 69 0 5 -4 11 -8 13 -14 5 -63 118 -57 128 3 6 2 10 -3 10 -9 0 -19 33
-28 95 -2 17 -7 46 -11 65 -8 47 -8 274 0 330 16 105 29 164 48 208 28 68 52
112 61 112 5 0 8 5 8 11 0 23 75 69 130 79 46 9 137 2 164 -13z"/>
<path d="M8030 5689 c-91 -14 -108 -18 -170 -39 -89 -30 -148 -61 -216 -116
-58 -46 -128 -125 -155 -174 -8 -14 -17 -27 -21 -30 -10 -8 -67 -156 -73 -190
-3 -16 -7 -44 -10 -62 -3 -17 -8 -35 -11 -39 -2 -4 0 -10 6 -14 6 -4 7 -13 2
-23 -11 -21 -5 -113 15 -222 8 -46 54 -163 67 -172 6 -4 8 -8 3 -8 -11 0 40
-78 91 -139 74 -87 212 -185 274 -195 7 -1 18 -4 23 -7 10 -6 47 -16 95 -26
14 -3 42 -5 63 -6 20 0 37 -4 37 -9 0 -5 4 -6 10 -3 5 3 47 7 93 9 92 4 175
25 249 62 26 13 48 21 48 17 0 -5 4 -3 8 3 4 6 29 26 57 44 77 53 185 168 185
198 0 6 -17 20 -38 31 l-38 19 -43 -44 c-23 -24 -49 -44 -56 -44 -7 0 -15 -7
-19 -15 -3 -8 -12 -15 -21 -15 -8 0 -15 -4 -15 -10 0 -5 -5 -10 -10 -10 -6 0
-29 -9 -53 -19 -60 -27 -99 -38 -124 -36 -13 1 -23 -1 -23 -5 0 -6 -133 -5
-160 2 -8 2 -21 7 -27 11 -7 5 -13 6 -13 2 0 -11 -56 24 -92 57 -39 37 -98
134 -98 161 0 9 -4 17 -10 17 -5 0 -10 13 -10 28 0 16 -3 32 -7 36 -7 7 -8 11
-20 91 -10 64 -9 297 1 350 10 51 14 70 16 70 1 0 3 8 5 18 2 10 7 26 11 35 4
9 8 22 10 29 4 21 72 126 103 159 45 49 109 81 156 79 53 -4 89 -11 112 -23
26 -14 73 -69 73 -86 0 -8 5 -18 10 -21 6 -4 8 -10 5 -15 -3 -5 -2 -11 3 -14
10 -6 8 -154 -2 -178 -4 -9 -5 -21 -2 -27 3 -5 3 -11 -1 -13 -5 -1 -19 -23
-32 -48 -14 -25 -38 -58 -53 -75 -15 -16 -28 -33 -28 -37 0 -5 -6 -8 -14 -8
-8 0 -16 -7 -20 -15 -3 -8 -12 -15 -19 -15 -8 0 -20 -7 -27 -15 -7 -8 -18 -14
-24 -14 -6 1 -24 -3 -39 -9 -16 -7 -46 -15 -68 -18 -37 -6 -39 -8 -37 -40 2
-30 6 -35 38 -41 45 -10 213 -10 265 -1 93 18 105 21 105 28 0 4 12 10 28 13
36 7 153 97 189 144 15 21 34 44 41 51 6 7 12 20 12 28 0 8 4 14 10 14 5 0 13
12 16 28 4 15 9 32 13 37 14 25 23 185 9 185 -5 0 -7 4 -3 9 3 5 -4 34 -15 64
-25 66 -106 154 -175 190 -61 31 -125 58 -125 51 0 -3 -10 0 -21 7 -25 13
-251 19 -319 8z"/>
<path d="M9163 4635 c-18 -8 -51 -32 -72 -54 -64 -65 -78 -154 -39 -239 26
-55 30 -60 83 -92 81 -50 201 -30 268 44 40 43 49 70 49 148 0 70 -17 109 -66
151 -62 52 -156 70 -223 42z"/>
</g>
</svg>
