<svg width="100" height="100" viewBox="0 0 52 56" fill="none" xmlns="http://www.w3.org/2000/svg">
<path d="M45.6381 7.32942H40.2761V1.52066C40.2761 0.780378 39.6759 0.180176 38.9356 0.180176H34.4674C33.7271 0.180176 33.1269 0.780378 33.1269 1.52066V7.32942H18.8284V1.52066C18.8284 0.780378 18.2282 0.180176 17.4879 0.180176H13.0196C12.2793 0.180176 11.6791 0.780378 11.6791 1.52066V7.32942H6.3172C3.35584 7.32942 0.955261 9.73001 0.955261 12.6914V50.6211C0.955261 53.5824 3.35584 55.983 6.3172 55.983H45.6381C48.5994 55.983 51 53.5824 51 50.6211V12.6914C51 9.73001 48.5994 7.32942 45.6381 7.32942ZM34.6587 52.3382H5.33559C5.15784 52.3382 4.98736 52.2676 4.86166 52.1419C4.73597 52.0162 4.66535 51.8458 4.66535 51.668V14.0932H47.1351L47.3314 51.668C47.1351 52.1419 47.2608 52.0162 47.1351 52.1419C47.0094 52.2676 34.6587 52.3382 34.6587 52.3382Z" fill="#606060"/>
<path d="M23.6796 21.5858C23.6796 21.0335 24.1273 20.5858 24.6796 20.5858H28.2447C28.797 20.5858 29.2447 21.0335 29.2447 21.5858V28.006H35.3732C35.9255 28.006 36.3732 28.4537 36.3732 29.006V32.1074C36.3732 32.6596 35.9255 33.1074 35.3732 33.1074H29.2447V44.6289C29.2447 45.1812 28.797 45.6289 28.2447 45.6289H24.6796C24.1273 45.6289 23.6796 45.1812 23.6796 44.6289V33.1074H18.1869C17.6346 33.1074 17.1869 32.6596 17.1869 32.1074V29.006C17.1869 28.4537 17.6346 28.006 18.1869 28.006H23.6796V21.5858Z" fill="#606060"/>
</svg>
