<svg width="100" height="100" viewBox="0 0 60 60" fill="none" xmlns="http://www.w3.org/2000/svg">
<path d="M44.7199 60.8928H15.28V22.0672L29.9999 10.2132L44.7199 22.0673V60.8928ZM19.28 56.8708H40.7198V23.9977L29.9999 15.3666L19.28 23.9977V56.8708ZM19.28 60.8928H0V37.3212L19.28 24.3974V60.8928ZM3.9999 56.8708H15.2798V31.9104L3.99996 39.4717L3.9999 56.8708ZM59.9997 60.8928H40.72V24.3973L60 37.3213L59.9997 60.8928ZM44.7198 56.8708H55.9998V39.4717L44.7199 31.9104L44.7198 56.8708ZM17.2799 48.076H9.62666V44.0541H17.2799V48.076ZM50.3732 48.076H42.7199V44.0541H50.3732V48.076ZM29.9999 44.0541C32.576 44.0571 34.6636 46.1562 34.6666 48.7461V61H25.3332V48.5587C25.4292 46.0506 27.4743 44.054 29.9834 44.054H30.0009H30L29.9999 44.0541ZM30.6692 56.9781V48.7464C30.6692 48.3762 30.3708 48.076 30.0026 48.076H30.0007C29.6517 48.076 29.3657 48.3466 29.3387 48.6904L29.3386 48.6928V56.9781H30.6692ZM30 26.1697C32.5037 26.1697 34.5334 28.2105 34.5334 30.728C34.5334 33.2454 32.5037 35.2862 30 35.2862C27.4963 35.2862 25.4666 33.2453 25.4666 30.7279C25.4666 28.2104 27.4963 26.1697 30 26.1697ZM30 31.2641C30.2946 31.2641 30.5333 31.024 30.5333 30.728C30.5333 30.4319 30.2946 30.1917 30 30.1917C29.7054 30.1917 29.4667 30.4317 29.4667 30.7279C29.4667 31.024 29.7054 31.2641 30 31.2641ZM32 12.8167H28V0H32V12.8167ZM35.0933 7.13229H24.9066V3.11034H35.0933L35.0933 7.13229Z" fill="#606060"/>
</svg>
