<svg width="100" height="100" viewBox="0 0 54 56" fill="none" xmlns="http://www.w3.org/2000/svg">
<path d="M12.7673 55.137H9.17762V53.366L2.39318 44.9161C0.90233 43.0681 0 40.6912 0 38.1035C0 38.0915 2.13124e-10 38.0796 0.00010769 38.0676V38.0695V20.6287C0.00010769 17.1062 2.85549 14.2509 6.37769 14.2509C9.89989 14.2509 12.7553 17.1063 12.7553 20.6285V36.6862H9.1536V20.6285C9.1536 19.0888 7.90548 17.8405 6.36568 17.8405C4.82589 17.8405 3.57771 19.0888 3.57771 20.6285V38.0893C3.57771 39.8287 4.186 41.426 5.2014 42.6802L5.19063 42.6665L12.7671 52.112L12.7673 55.137ZM28.8011 55.0412H25.2114V40.9937C25.21 40.1564 24.8671 39.3995 24.3144 38.8547L24.314 38.8543L17.9124 32.5916C17.3679 32.0459 16.615 31.7084 15.7833 31.7084C15.7747 31.7084 15.7661 31.7084 15.7573 31.7085H15.7347C14.0825 31.71 12.7436 33.0498 12.7436 34.7023C12.7436 35.539 13.087 36.2955 13.6404 36.8388L16.8117 40.0102L14.275 42.5493L11.1208 39.3976C9.92353 38.202 9.18284 36.5495 9.18284 34.7239C9.18284 31.0763 12.1398 28.1193 15.7874 28.1193C17.6094 28.1193 19.2591 28.8571 20.454 30.0502L20.4538 30.0501L26.8339 36.2865C28.0516 37.4857 28.8071 39.1511 28.8105 40.9931V40.9938L28.8011 55.0412ZM44.8109 55.137H41.2213V52.1121L48.7833 42.6713C49.7895 41.4303 50.3987 39.8318 50.3987 38.091V38.0783V38.079V20.6285C50.3987 19.0954 49.1559 17.8525 47.6227 17.8525C46.0895 17.8525 44.8467 19.0954 44.8467 20.6286V36.6862H41.2569V20.6285C41.2837 17.127 44.1123 14.2951 47.6099 14.2629H47.6321C51.1351 14.2871 53.9692 17.1169 54.0001 20.616V38.0904C54.0001 40.6862 53.0921 43.07 51.5765 44.9413L51.5927 44.9209L44.8105 53.3661L44.8109 55.137ZM28.8011 55.0412H25.2115V40.9937C25.2147 39.1522 25.9693 37.4877 27.185 36.2897L27.1858 36.2889L33.5657 30.0285C34.7614 28.8373 36.4109 28.1009 38.2323 28.1009C41.884 28.1009 44.8444 31.0612 44.8444 34.713C44.8444 36.5434 44.1008 38.2001 42.899 39.3973L42.8988 39.3975L39.7376 42.5493L37.2008 40.0126L40.3717 36.8417C40.9259 36.2932 41.2691 35.5324 41.2691 34.6916C41.2691 33.8614 40.9346 33.1093 40.393 32.5627L40.3933 32.5629C39.8548 32.0219 39.1096 31.687 38.2863 31.687H38.2539L38.2293 31.6869C37.3977 31.6869 36.6448 32.0245 36.1003 32.57L36.0834 32.5868L29.6937 38.8567C29.1408 39.4018 28.7978 40.1588 28.7963 40.9958V40.9961L28.8011 55.0412ZM28.8011 25.2232H25.2115V0H28.8012L28.8011 25.2232ZM36.1718 10.1946H17.8407V6.60491H36.1718V10.1946Z" fill="#606060"/>
</svg>
